<svg id="Warstwa_1" data-name="Warstwa 1" xmlns="http://www.w3.org/2000/svg" viewBox="0 0 1080 1080"><defs><style>.cls-1{opacity:0.35;}.cls-2{opacity:0.46;}.cls-3{fill:#ccc;}.cls-4{fill:gray;}.cls-5{opacity:0.7;}.cls-6{opacity:0.71;}.cls-7{opacity:0.37;}.cls-8{opacity:0.31;}.cls-9{opacity:0.28;}.cls-10{opacity:0.74;}.cls-11{opacity:0.75;}.cls-12{opacity:0.4;}.cls-13{opacity:0.5;}.cls-14{opacity:0.39;}.cls-15{opacity:0.68;}.cls-16{opacity:0.27;}.cls-17{opacity:0.62;}.cls-18{opacity:0.56;}</style></defs><g class="cls-1"><g class="cls-2"><polygon class="cls-3" points="455.52 179.09 485.2 151.67 494.11 191.09 455.52 179.09"/><path class="cls-4" d="M484.61,153.58l8.14,36-35.28-11,27.14-25.07m1.19-3.82-32.23,29.78,41.9,13-9.67-42.8Z"/></g><g class="cls-5"><polygon class="cls-3" points="518.99 720.72 554.14 779.08 486.02 780.33 518.99 720.72"/><path class="cls-4" d="M519,722.72l33.36,55.39-64.66,1.19L519,722.72m-.07-4-34.65,62.64,71.58-1.31L519,718.72Z"/></g><g class="cls-6"><polygon class="cls-3" points="892.86 631.4 924.57 577.04 955.79 631.68 892.86 631.4"/><path class="cls-4" d="M924.56,579l29.5,51.64-59.47-.27,30-51.37m0-4-33.46,57.35,66.39.3L924.58,575Z"/></g><g class="cls-7"><polygon class="cls-3" points="106.56 938.09 161.78 963.1 112.51 998.42 106.56 938.09"/><path class="cls-4" d="M107.72,939.72l52.07,23.58-46.45,33.3-5.62-56.88m-2.33-3.25,6.3,63.77,52.08-37.33-58.38-26.44Z"/></g><g class="cls-8"><polygon class="cls-3" points="178.79 106.08 219.76 53.84 244.52 115.45 178.79 106.08"/><path class="cls-4" d="M219.48,55.82,243,114.21l-62.31-8.87,38.84-49.52m.57-4-43.12,55,69.16,9.85-26-64.82Z"/></g><g class="cls-9"><polygon class="cls-3" points="995.3 31.38 1051.33 71.14 988.88 99.78 995.3 31.38"/><path class="cls-4" d="M996.14,33.2,1049.34,71,990,98.15l6.1-64.95m-1.67-3.64-6.75,71.85,65.6-30.08L994.47,29.56Z"/></g><g class="cls-10"><polygon class="cls-3" points="1006.61 317.29 1034.93 353.04 989.8 359.69 1006.61 317.29"/><path class="cls-4" d="M1006.9,319.26l26.17,33.05-41.7,6.13,15.53-39.18m-.58-3.95-18.09,45.62,48.56-7.15-30.47-38.47Z"/></g><g class="cls-11"><polygon class="cls-3" points="601.46 530.07 630.98 559.34 590.87 570.27 601.46 530.07"/><path class="cls-4" d="M602,532l27,26.83-36.76,10L602,532m-1-3.86-11.48,43.55,43.45-11.84-32-31.71Z"/></g><g class="cls-12"><polygon class="cls-3" points="47.26 542.47 83.76 503.09 99.61 554.39 47.26 542.47"/><path class="cls-4" d="M83.31,505l14.83,48-49-11.15L83.31,505m.89-3.9L45.35,543.06l55.73,12.69L84.2,501.14Z"/></g><g class="cls-13"><circle class="cls-3" cx="511.5" cy="398.5" r="26.5"/><path class="cls-4" d="M511.5,373A25.5,25.5,0,1,1,486,398.5,25.53,25.53,0,0,1,511.5,373m0-2A27.5,27.5,0,1,0,539,398.5,27.5,27.5,0,0,0,511.5,371Z"/></g><g class="cls-14"><circle class="cls-3" cx="800" cy="263" r="25"/><path class="cls-4" d="M800,239a24,24,0,1,1-24,24,24,24,0,0,1,24-24m0-2a26,26,0,1,0,26,26,26,26,0,0,0-26-26Z"/></g><g class="cls-15"><circle class="cls-3" cx="974" cy="851" r="30.25"/><path class="cls-4" d="M974,821.75A29.25,29.25,0,1,1,944.75,851,29.28,29.28,0,0,1,974,821.75m0-2A31.25,31.25,0,1,0,1005.25,851,31.25,31.25,0,0,0,974,819.75Z"/></g><g class="cls-14"><circle class="cls-3" cx="115" cy="263" r="18.25"/><path class="cls-4" d="M115,245.75A17.25,17.25,0,1,1,97.75,263,17.27,17.27,0,0,1,115,245.75m0-2A19.25,19.25,0,1,0,134.25,263,19.25,19.25,0,0,0,115,243.75Z"/></g><g class="cls-16"><circle class="cls-3" cx="305" cy="539" r="18.75"/><path class="cls-4" d="M305,521.25A17.75,17.75,0,1,1,287.25,539,17.77,17.77,0,0,1,305,521.25m0-2A19.75,19.75,0,1,0,324.75,539,19.75,19.75,0,0,0,305,519.25Z"/></g><g class="cls-17"><circle class="cls-3" cx="259" cy="843" r="22"/><path class="cls-4" d="M259,822a21,21,0,1,1-21,21,21,21,0,0,1,21-21m0-2a23,23,0,1,0,23,23,23,23,0,0,0-23-23Z"/></g><g class="cls-18"><circle class="cls-3" cx="681.5" cy="968.5" r="23.5"/><path class="cls-4" d="M681.5,946A22.5,22.5,0,1,1,659,968.5,22.52,22.52,0,0,1,681.5,946m0-2A24.5,24.5,0,1,0,706,968.5,24.5,24.5,0,0,0,681.5,944Z"/></g></g></svg>