<svg xmlns="http://www.w3.org/2000/svg" viewBox="0 0 105.51 162.56"><defs><style>.cls-1{fill:#fe5757;}.cls-2{fill:#fe914e;}.cls-3{fill:#fe9250;}.cls-4{fill:#fe924f;}.cls-5{fill:#fe9352;}.cls-6{fill:#fe9757;}.cls-7{fill:#fd9758;}.cls-8{fill:#fd9a5e;}.cls-9{fill:#fc7e7e;}</style></defs><g id="Warstwa_2" data-name="Warstwa 2"><g id="Layer_1" data-name="Layer 1"><path class="cls-1" d="M44.33,110c-.54-14.54.22-29,4.21-43,.87-3.07.43-3.48-2.74-3.4-16.39.39-30.32-10.88-34.06-26.85-.92-3.92,1.81-2.83,3.34-2.94,16.52-1.2,29.18,6.81,35.21,22.1.23.6.58,1.15,1.17,2.29,4.1-7.47,8.2-14.4,13.93-20.15,1.49-1.49.17-2.77-.35-4.07-4.72-11.84-2-23,7.57-31.64C76.28-1,77.09-.87,78.8,3.6,82.35,12.85,82,21.84,76.19,31c10.43-2.75,19.16-.36,27.21,5.47,2.92,2.11,2.77,3.3-.15,5.27-11,7.42-22.12,7.65-32.86-.05C68,40,67.22,41.25,66,42.59A64.32,64.32,0,0,0,53.32,63.91c-1.12,3.07-2,6.23-3,9.33,1.66,1.12,2.25-.34,3-1,12.2-10.48,28-8.45,40.17-1.7,3.1,1.71,1.23,3.18-.13,4.57C83,85.75,67.84,92.34,51.76,83.41a30.08,30.08,0,0,0-2.87-1.18c-1.6,16.3-.65,32.17-.37,48.83,1.11-.89,1.55-1.09,1.72-1.42,8.39-16.36,22.75-21.31,39.91-21,3,0,4.2.77,3.07,4.1-5.58,16.44-17.6,32.37-41.22,30.71-2.41-.17-2.88.5-2.83,2.58.11,4.5.11,9,.13,13.5,0,1.35,0,3.07-1.74,3.05s-1.6-1.82-1.64-3.12c-.28-9-.69-18-.71-27,0-3.6-.87-4.82-4.76-4.73-19.59.44-34.8-11.3-39.88-30.46-.47-1.76-1.64-4.07,1.86-4.34,15.23-1.14,33.62,4.48,40.77,21C46,113.29,44.32,111.38,44.33,110Z"/><path class="cls-2" d="M35.65,90c-5.53-5.76-12-8.83-19.47-10.67-3.8-.94-4-6.3-.59-8.88A6.92,6.92,0,0,1,24,70.12C31.18,74.63,34,81.85,35.65,90Z"/><path class="cls-3" d="M67.79,58.63A22.63,22.63,0,0,1,82.2,53a6.62,6.62,0,0,1,5.7,2.52A4.27,4.27,0,0,1,88,61.07a3.63,3.63,0,0,1-5.25,1.09C78.18,59.36,73.2,58.56,67.79,58.63Z"/><path class="cls-2" d="M70.61,103c-1.85-.13-3.81.24-4.35-1.87-.48-1.89,1.39-2.47,2.55-3.21a97.67,97.67,0,0,1,8.94-5.25c2.36-1.18,5-1.35,6.39,1.52s-.6,4.72-2.84,6C78,102.14,74.13,102.5,70.61,103Z"/><path class="cls-4" d="M49,19.44c.18-2.53.34-5.57,4-5.52s4,3.11,3.91,5.8a68.51,68.51,0,0,1-1.44,8.81c-.21,1.09-.16,2.59-1.64,2.74S51.61,30,51.1,28.79A25.55,25.55,0,0,1,49,19.44Z"/><path class="cls-5" d="M49.19,30.34c.12,1.54-.25,2.34-1.64,1.94-3.19-.92-6.29-2.1-8.74-4.42a2.85,2.85,0,0,1-.64-3.62,2.36,2.36,0,0,1,3-1.11C45,24.34,47.36,27.27,49.19,30.34Z"/><path class="cls-6" d="M58.15,105.87c-.06,1.77-.89,2.94-2.67,3a2.82,2.82,0,0,1-3-2.74,2.74,2.74,0,0,1,2.75-2.93C57,103.05,57.92,104.19,58.15,105.87Z"/><path class="cls-7" d="M64.11,96.9a2.72,2.72,0,1,1-5.39-.71,2.32,2.32,0,0,1,2.71-2.25A2.56,2.56,0,0,1,64.11,96.9Z"/><path class="cls-8" d="M53.46,38c-1.45,0-2.2-.51-2.28-1.7-.1-1.37.5-2.23,2-2.26a1.71,1.71,0,0,1,2,1.69C55.23,37.1,54.6,37.9,53.46,38Z"/><path class="cls-9" d="M44.33,110c1.33,1.89.81,3.93.63,6-1.33-.2-1.42-1.25-1.76-2.1C44.81,112.94,43.74,111.22,44.33,110Z"/></g></g></svg>